<svg fill="#fff" xmlns="http://www.w3.org/2000/svg" xmlns:xlink="http://www.w3.org/1999/xlink" width="15pt" height="15pt" viewBox="0 0 15 15" version="1.1">
    <g id="surface1">
        <path style=" stroke:#fff;fill-rule:nonzero;fill:rgb(255%,255%,255%);fill-opacity:1;" d="M 10.046875 3.503906 C 10.046875 4.914062 8.90625 6.054688 7.5 6.054688 C 6.09375 6.054688 4.953125 4.914062 4.953125 3.503906 C 4.953125 2.097656 6.09375 0.957031 7.5 0.957031 C 8.90625 0.957031 10.046875 2.097656 10.046875 3.503906 Z M 10.046875 3.503906 "/>
        <path style=" stroke:#fff;fill-rule:nonzero;fill:rgb(255%,255%,255%);fill-opacity:1;" d="M 14.265625 4.441406 C 14.265625 5.332031 13.546875 6.054688 12.65625 6.054688 C 11.765625 6.054688 11.046875 5.332031 11.046875 4.441406 C 11.046875 3.550781 11.765625 2.832031 12.65625 2.832031 C 13.546875 2.832031 14.265625 3.550781 14.265625 4.441406 Z M 14.265625 4.441406 "/>
        <path style=" stroke:#fff;fill-rule:nonzero;fill:rgb(255%,255%,255%);fill-opacity:1;" d="M 3.953125 4.441406 C 3.953125 5.332031 3.234375 6.054688 2.34375 6.054688 C 1.453125 6.054688 0.734375 5.332031 0.734375 4.441406 C 0.734375 3.550781 1.453125 2.832031 2.34375 2.832031 C 3.234375 2.832031 3.953125 3.550781 3.953125 4.441406 Z M 3.953125 4.441406 "/>
        <path style=" stroke:#fff;fill-rule:nonzero;fill:rgb(255%,255%,255%);fill-opacity:1;" d="M 3.929688 7.5 C 3.296875 6.980469 2.722656 7.050781 1.988281 7.050781 C 0.890625 7.050781 0 7.9375 0 9.027344 L 0 12.226562 C 0 12.699219 0.386719 13.085938 0.863281 13.085938 C 2.914062 13.085938 2.664062 13.121094 2.664062 12.996094 C 2.664062 10.730469 2.398438 9.066406 3.929688 7.5 Z M 3.929688 7.5 "/>
        <path style=" stroke:#fff;fill-rule:nonzero;fill:rgb(255%,255%,255%);fill-opacity:1;" d="M 8.199219 7.0625 C 6.917969 6.953125 5.804688 7.0625 4.84375 7.855469 C 3.234375 9.144531 3.546875 10.875 3.546875 12.996094 C 3.546875 13.558594 4 14.023438 4.570312 14.023438 C 10.753906 14.023438 11 14.222656 11.367188 13.410156 C 11.488281 13.136719 11.453125 13.222656 11.453125 10.59375 C 11.453125 8.507812 9.648438 7.0625 8.199219 7.0625 Z M 8.199219 7.0625 "/>
        <path style=" stroke:#fff;fill-rule:nonzero;fill:rgb(255%,255%,255%);fill-opacity:1;" d="M 13.011719 7.050781 C 12.273438 7.050781 11.703125 6.980469 11.070312 7.5 C 12.589844 9.054688 12.335938 10.605469 12.335938 12.996094 C 12.335938 13.121094 12.128906 13.085938 14.109375 13.085938 C 14.601562 13.085938 15 12.6875 15 12.195312 L 15 9.027344 C 15 7.9375 14.109375 7.050781 13.011719 7.050781 Z M 13.011719 7.050781 "/>
    </g>
</svg>
