<?xml version="1.0" encoding="UTF-8"?>
<svg xmlns="http://www.w3.org/2000/svg" xmlns:xlink="http://www.w3.org/1999/xlink" width="16pt" height="16pt" viewBox="0 0 16 16" version="1.1" fill="#fff">
<g id="surface1">
<path style=" stroke:#fff;fill-rule:nonzero;fill:rgb(255%,255%,255%);fill-opacity:1;" d="M 8 0 C 4.898438 0 2.375 2.523438 2.375 5.625 C 2.375 6.671875 2.664062 7.695312 3.214844 8.582031 L 7.679688 15.777344 C 7.765625 15.917969 7.917969 16 8.078125 16 C 8.078125 16 8.082031 16 8.082031 16 C 8.246094 16 8.394531 15.914062 8.480469 15.773438 L 12.832031 8.507812 C 13.351562 7.636719 13.625 6.640625 13.625 5.625 C 13.625 2.523438 11.101562 0 8 0 Z M 12.027344 8.027344 L 8.070312 14.628906 L 4.011719 8.089844 C 3.554688 7.351562 3.304688 6.5 3.304688 5.625 C 3.304688 3.039062 5.414062 0.929688 8 0.929688 C 10.585938 0.929688 12.691406 3.039062 12.691406 5.625 C 12.691406 6.472656 12.460938 7.304688 12.027344 8.027344 Z M 12.027344 8.027344 "/>
<path style=" stroke:#fff;fill-rule:nonzero;fill:rgb(255%,255%,255%);fill-opacity:1;" d="M 8 2.8125 C 6.449219 2.8125 5.1875 4.074219 5.1875 5.625 C 5.1875 7.164062 6.429688 8.4375 8 8.4375 C 9.589844 8.4375 10.8125 7.148438 10.8125 5.625 C 10.8125 4.074219 9.550781 2.8125 8 2.8125 Z M 8 7.507812 C 6.960938 7.507812 6.117188 6.660156 6.117188 5.625 C 6.117188 4.589844 6.964844 3.742188 8 3.742188 C 9.035156 3.742188 9.878906 4.589844 9.878906 5.625 C 9.878906 6.644531 9.054688 7.507812 8 7.507812 Z M 8 7.507812 "/>
</g>
</svg>
